<svg xmlns="http://www.w3.org/2000/svg" width="795" height="115" viewBox="0 0 795 115">
  <g transform="translate(0 -1)">
    <path d="M50.11,55.84 C50.11,49.54 44.34,40.49 33.19,40.49 C23.09,40.49 16.27,49.15 16.27,58.07 C16.27,68.7 23.62,76.3 36.21,76.3 L60.03,76.3 C54.1712269,85.3768921 44.0730872,90.8221894 33.27,90.73 C15.3759741,90.73 0.87,76.2240259 0.87,58.33 C0.87,40.4359741 15.3759741,25.93 33.27,25.93 C51.1640259,25.93 65.67,40.4359741 65.67,58.33 C65.6305057,61.7535202 65.105267,65.154104 64.11,68.43 L28.02,68.43 L28.02,64.89 L40.74,64.5 C47.18,64.23 50.11,60.95 50.11,55.84 Z"/>
    <polygon points="92.56 46 104.89 27.9 121.94 27.9 100.94 57.15 123.63 88.77 105.53 88.77 92.04 69.08 78.39 88.76 61.34 88.76 83.64 57.93 62 27.93 80.11 27.93"/>
    <path d="M142.41 39.83C146.87 30.38 154.87 26.19 163.01 26.19 177.7 26.19 191.11 38.61 191.11 58.33 191.11 78.05 177.7 90.47 163.01 90.47 154.88 90.47 146.87 86.27 142.41 76.83 142.15 76.31 141.75 76.44 141.75 76.96L141.75 113.82 126.01 113.82 126.01 27.89 141.75 27.89 141.75 39.7C141.75 40.22 142.11 40.36 142.41 39.83zM158.68 77.48C167.86 77.48 175.87 69.48 175.87 58.33 175.87 47.18 167.87 39.18 158.68 39.18 149.49 39.18 141.49 47.18 141.49 58.33 141.49 69.48 149.62 77.48 158.68 77.48zM245.25 55.84C245.25 49.54 239.48 40.49 228.33 40.49 218.23 40.49 211.41 49.15 211.41 58.07 211.41 68.7 218.76 76.3 231.35 76.3L255.23 76.3C249.371227 85.3768921 239.273087 90.8221894 228.47 90.73 210.575974 90.73 196.07 76.2240259 196.07 58.33 196.07 40.4359741 210.575974 25.93 228.47 25.93 246.364026 25.93 260.87 40.4359741 260.87 58.33 260.827532 61.7540221 260.298919 65.154654 259.3 68.43L223.21 68.43 223.21 64.89 235.94 64.5C242.37 64.23 245.25 60.95 245.25 55.84zM314.64 76.82C310.18 86.27 302.18 90.46 294.04 90.46 279.35 90.46 265.97 78 265.97 58.32 265.97 38.64 279.35 26.18 294.04 26.18 302.17 26.18 310.18 30.38 314.64 39.82 314.9 40.34 315.3 40.21 315.3 39.69L315.3 1.53 331.04 1.53 331.04 88.76 315.3 88.76 315.3 76.96C315.3 76.43 314.9 76.3 314.64 76.82zM298.37 39.18C289.19 39.18 281.19 47.18 281.19 58.33 281.19 69.48 289.19 77.48 298.37 77.48 307.55 77.48 315.56 69.48 315.56 58.33 315.56 47.18 307.43 39.18 298.37 39.18zM341.01 10.18C341.01 5.10726457 345.122265.995 350.195.995 355.267735.995 359.38 5.10726457 359.38 10.18 359.38 15.2527354 355.267735 19.365 350.195 19.365 345.122265 19.365 341.01 15.2527354 341.01 10.18zM358.06 27.89L358.06 88.76 342.32 88.76 342.32 27.89 358.06 27.89zM414.6 76.82C410.11 86.27 402.11 90.47 394 90.47 379.31 90.47 365.93 78.01 365.93 58.33 365.93 38.65 379.31 26.19 394 26.19 402.13 26.19 410.14 30.39 414.6 39.83 414.86 40.35 415.26 40.22 415.26 39.7L415.26 27.89 431 27.89 431 88.76 415.25 88.76 415.25 76.96C415.25 76.43 414.86 76.3 414.6 76.82zM398.33 39.18C389.15 39.18 381.15 47.18 381.15 58.33 381.15 69.48 389.15 77.48 398.33 77.48 407.51 77.48 415.52 69.48 415.52 58.33 415.52 47.18 407.38 39.18 398.33 39.18zM509.3 76.43C509.3 75.91 508.91 75.77 508.64 76.3 504.18 85.75 496.31 89.94 488.31 89.94 473.75 89.94 460.5 77.61 460.5 58.06 460.5 38.51 473.75 26.18 488.31 26.18 496.31 26.18 504.18 30.38 508.64 39.82 508.9 40.34 509.3 40.21 509.3 39.69L509.3 27.89 525.04 27.89 525.04 85.22C525.04 102.14 513.36 115.22 493.16 115.22 481.88 115.22 472.04 111.28 464.82 104.59L474.27 94.36C480.57 99.36 485.55 101.97 492.9 101.97 504.44 101.97 509.3 93.84 509.3 83.74L509.3 76.43zM492.64 39.18C483.59 39.18 475.72 47.05 475.72 58.07 475.72 69.09 483.59 76.96 492.64 76.96 501.69 76.96 509.56 69.09 509.56 58.07 509.56 47.05 501.56 39.18 492.64 39.18zM552.11 27.89L552.11 41.14C552.11 41.4 552.37 41.53 552.5 41.14 554.6 30.25 559.32 26.14 567.5 26.14L568.94 26.14 568.94 42.72 561.86 42.72C555.43 42.72 552.15 47.72 552.15 54.79L552.15 88.79 536.32 88.79 536.32 27.89 552.11 27.89zM602.31 25.93C620.186928 26.001729 634.627656 40.5393114 634.579884 58.4163191 634.532113 76.2933268 620.013896 90.7535242 602.13684 90.7297105 584.259785 90.7058967 569.780144 76.2070715 569.78 58.33 569.790586 49.7176943 573.225399 41.46307 579.327404 35.3854506 585.429409 29.3078312 593.697721 25.9060999 602.31 25.93zM602.18 40.23C592.73 40.23 584.99 48.1 584.99 58.33 584.99 68.56 592.73 76.43 602.18 76.43 611.63 76.43 619.36 68.56 619.36 58.33 619.36 48.1 611.62 40.22 602.18 40.22L602.18 40.23zM667.24 90.73C651.89 90.73 642.05 81.42 642.05 67.73L642.05 27.89 657.79 27.89 657.79 66.61C657.79 72.61 661.73 76.61 667.63 76.61 673.01 76.61 677.08 72.54 677.08 66.77L677.08 27.89 692.82 27.89 692.82 67.77C692.82 81.42 682.19 90.73 667.24 90.73zM720.11 39.83C724.57 30.38 732.57 26.19 740.71 26.19 755.4 26.19 768.78 38.65 768.78 58.33 768.78 78.01 755.4 90.47 740.71 90.47 732.58 90.47 724.57 86.27 720.11 76.83 719.85 76.31 719.45 76.44 719.45 76.96L719.45 113.82 703.71 113.82 703.71 27.89 719.45 27.89 719.45 39.7C719.45 40.22 719.84 40.36 720.11 39.83zM736.38 77.48C745.56 77.48 753.57 69.48 753.57 58.33 753.57 47.18 745.57 39.18 736.38 39.18 727.19 39.18 719.19 47.18 719.19 58.33 719.19 69.48 727.32 77.48 736.37 77.48L736.38 77.48z"/>
    <g transform="translate(777 28)">
      <polygon points="7.9 .11 7.9 1.72 5.18 1.72 5.18 9.21 3.26 9.21 3.26 1.72 .52 1.72 .52 .11"/>
      <path d="M15.05,0.11 L17.79,0.11 L17.79,9.21 L16.02,9.21 L16.02,3.05 C16.02,2.87 16.02,2.62333333 16.02,2.31 C16.02,1.99666667 16.02,1.75 16.02,1.57 L14.31,9.21 L12.46,9.21 L10.74,1.61 C10.74,1.78333333 10.74,2.03 10.74,2.35 C10.74,2.67 10.74,2.91666667 10.74,3.09 L10.74,9.21 L8.97,9.21 L8.97,0.11 L11.74,0.11 L13.4,7.27 L15.05,0.11 Z"/>
    </g>
  </g>
</svg>
